# xmcd CD database file generated by Grip 3.2.0
# 
# Track frame offsets:
#       150
#       14499
#       29304
#       42977
#       59588
#       74242
#       91424
#       107011
#       123786
#       136136
# 
# Disc length: 2113 seconds
# 
# Revision: 1
# Processed by: cddbd v1.5.1PL0 Copyright (c) Steve Scherf et al.
# Submitted via: Grip 3.2.0
# 
DISCID=8c083f0a
DTITLE=Jamie Parker-Frank - Songs This Cowgirl Sings
DYEAR=2005
DGENRE=Western
TTITLE0=Lil Buckaroo
TTITLE1=Dusty Plains
TTITLE2=Cattle Call (Tex Owens)
TTITLE3=Jack's Fiddle
TTITLE4=An Old Puncher's Prayer (Locke Hamilton/Les Hamilton)
TTITLE5=An Old Barn
TTITLE6=Wyoming Lullaby
TTITLE7=Red River Valley (Traditional)
TTITLE8=Stampede
TTITLE9=Letter Home
EXTD=
EXTT0=
EXTT1=
EXTT2=
EXTT3=
EXTT4=
EXTT5=
EXTT6=
EXTT7=
EXTT8=
EXTT9=
PLAYORDER=
